<svg xmlns="http://www.w3.org/2000/svg" viewBox="0 0 64 64">
  <!-- Sfondo Circolare (Colore più tecnico/blu) -->
  <circle cx="32" cy="32" r="30" fill="#f1f5f9" stroke="#475569" stroke-width="2"/>
  
  <!-- Lui (Sinistra) -->
  <g transform="translate(14, 18)">
    <circle cx="8" cy="5" r="5" fill="#334155"/>
    <path d="M3,12 Q8,12 13,12 L13,32 L3,32 Z" fill="#475569"/>
  </g>

  <!-- Lei (Destra) -->
  <g transform="translate(34, 18)">
    <circle cx="8" cy="5" r="5" fill="#334155"/>
    <path d="M3,12 Q8,35 13,12 L16,32 L0,32 Z" fill="#e2e8f0" stroke="#94a3b8" stroke-width="0.5"/>
  </g>

  <!-- Chiave Inglese (Centro) -->
  <g transform="translate(24, 25) rotate(-45 8 8)">
    <path d="M4,2 L4,10 L6,10 L6,16 L10,16 L10,10 L12,10 L12,2 Z" fill="#64748b"/> <!-- Manico -->
    <circle cx="8" cy="4" r="3" fill="none" stroke="#64748b" stroke-width="2"/> <!-- Testa -->
    <rect x="7" y="2" width="2" height="3" fill="#f1f5f9"/> <!-- Spacco -->
  </g>
</svg>