<svg width="600" height="400" viewBox="0 0 600 400" xmlns="http://www.w3.org/2000/svg">
  <rect width="600" height="400" fill="#e0e0e0" />
  
  <path d="M0 0 L300 200 L600 0" fill="none" stroke="#d1d1d1" stroke-width="1.5" />
  <path d="M0 400 L300 200 L600 400" fill="none" stroke="#c4c4c4" stroke-width="1.5" />
  <path d="M0 0 L300 200 L0 400" fill="none" stroke="#d8d8d8" stroke-width="1" />
  <path d="M600 0 L300 200 L600 400" fill="none" stroke="#d8d8d8" stroke-width="1" />

  <circle cx="335" cy="225" r="15" fill="#d4af37" />
  <path d="M305 210 Q310 320 310 335 A5 5 0 1 0 320 335 Q320 320 315 210 Z" fill="#d4af37" />

  <defs>
    <filter id="shadow" x="-20%" y="-20%" width="140%" height="140%">
      <feGaussianBlur in="SourceAlpha" stdDeviation="3" />
      <feOffset dx="2" dy="2" result="offsetblur" />
      <feComponentTransfer>
        <feFuncA type="linear" slope="0.4" />
      </feComponentTransfer>
      <feMerge>
        <feMergeNode />
        <feMergeNode in="SourceGraphic" />
      </feMerge>
    </filter>
  </defs>
  
  <circle cx="300" cy="200" r="55" fill="#13afafff" filter="url(#shadow)" />
  <circle cx="300" cy="200" r="48" fill="none" stroke="#159c9cff" stroke-width="2" />
  
  <text x="300" y="215" font-family="" font-size="34" font-weight="bold" font-style="italic" fill="#168181ff" text-anchor="middle" letter-spacing="-1">D&amp;L</text>
  
  <path d="M260 180 Q280 160 320 170" fill="none" stroke="#ffffff" stroke-width="2" opacity="0.2" />
</svg>